<?xml version="1.0" encoding="UTF-8"?>
<svg width="72px" height="57px" viewBox="0 0 72 57" version="1.1" xmlns="http://www.w3.org/2000/svg" xmlns:xlink="http://www.w3.org/1999/xlink">
    <!-- Generator: Sketch 48.2 (47327) - http://www.bohemiancoding.com/sketch -->
    <defs></defs>
    <g id="SubPage---Compare" stroke="none" stroke-width="1" fill="none" fill-rule="evenodd" transform="translate(-1198.000000, -2004.000000)">
        <g id="Find-truck-bar" transform="translate(0.000000, 1929.000000)" fill="#FF5959" fill-rule="nonzero">
            <g id="Types" transform="translate(443.000000, 49.000000)">
                <g id="pipe-carrier" transform="translate(755.000000, 26.000000)">
                    <path d="M71.063357,14.5387165 C70.4205007,13.4151514 69.5326885,12.5121119 68.5635292,11.9955653 C68.2651037,11.8366279 67.9685062,11.7200229 67.6773928,11.6431522 C68.3114137,10.3930485 68.1471959,8.4974144 67.1276135,6.7144119 C65.7430348,4.29352029 63.3832035,3.13113776 61.7551925,4.06810427 L61.3152472,4.32148715 C61.1635209,3.86056871 60.9593911,3.40255392 60.7103223,2.96837975 C59.8834445,1.52052121 58.6443464,0.453501115 57.3958035,0.114230905 C56.6531672,-0.0876501524 55.9519663,-0.0210187058 55.3659311,0.306789673 C55.3566386,0.31152723 20.8235202,20.2031536 20.8235202,20.2031536 C19.7326447,20.8309563 19.2762471,22.2216585 19.5375027,23.8333448 L11.4585345,19.1535555 C11.2699429,19.044286 11.0376311,19.0444388 10.8491919,19.1535555 L2.2372012,24.1426614 C2.08638892,24.230077 1.98188667,24.3767885 1.94608779,24.5438255 C1.93709999,24.5855466 0,36.2024948 0,36.2943423 L0,46.0067926 C0,46.2251787 0.116079757,46.4270597 0.304671279,46.5361764 L17.7597458,56.6455117 C17.8548033,56.7005285 17.9597625,56.7272727 18.0639601,56.7272727 C18.1702904,56.7272727 18.2747926,56.6971663 18.3683267,56.6429136 L18.3692407,56.6445947 L23.9974333,53.3851555 C24.0691833,54.5123884 24.5367014,55.4472154 25.3833829,55.9377818 C25.7786939,56.1667128 26.2158972,56.2753709 26.6727518,56.2753709 C28.1600046,56.2752181 29.8521489,55.1216994 30.9559729,53.2034473 C31.618633,52.0520681 31.9600171,50.7964627 31.9175155,49.6680072 C31.9066997,49.382684 31.8710531,49.1134074 31.8136226,48.8606358 L50.3991799,38.2219167 C50.4962177,39.2942856 50.9591657,40.1799031 51.7749231,40.6524362 C52.1702341,40.8813672 52.6074373,40.9900254 53.0642919,40.9900254 C54.5515448,40.9900254 56.2436891,39.8363538 57.3476654,37.9181017 C57.9670621,36.8419122 58.285139,35.725377 58.3145397,34.7242242 C58.5363404,35.4130039 58.9442953,35.9492647 59.5131165,36.2787542 C59.9082752,36.5076852 60.3456308,36.6164962 60.8024854,36.6164962 C62.2897382,36.6164962 63.9818825,35.4628246 65.0858589,33.5447253 C65.7485189,32.3933462 66.0899031,31.1377407 66.0472491,30.0092852 C66.036738,29.7325202 66.0026148,29.4708848 65.9480786,29.2245318 L66.9812189,28.6262242 C67.1698104,28.5171076 67.2858902,28.3152266 67.2858902,28.0968405 L67.2858902,22.5187492 L70.6276771,20.5954539 C72.2730544,19.6484009 72.4643879,16.9877278 71.063357,14.5387165 Z M62.3620977,5.12855291 C63.3624858,4.55255768 65.0610282,5.55753105 66.0707088,7.32295874 C67.0802371,9.08853925 67.0878539,11.0665457 66.0871611,11.6425409 L66.0949302,11.6559895 C65.9340637,11.7079498 65.7786814,11.7759567 65.6301541,11.8613855 L60.6690394,14.7204247 C60.3523336,13.9506481 59.9801776,13.1869845 59.5527238,12.4398259 C58.6970545,10.944439 57.6750347,9.60539143 56.5466846,8.47846417 L62.3620977,5.12855291 Z M58.4511848,26.187605 C58.8736115,25.2177812 59.1191766,24.0816845 59.1703614,22.8132418 C59.2389124,21.1127645 58.949627,19.2886523 58.3415031,17.4714171 L60.0232886,16.5022046 C61.351046,20.6516932 60.8108639,24.5519252 58.4511848,26.187605 Z M45.0543317,33.9049325 C45.4712743,32.9395406 45.7140973,31.8106267 45.7649774,30.5512006 C45.8336808,28.847514 45.5433291,27.019734 44.9327678,25.1991367 L57.2635762,18.0928012 C58.6240857,22.350031 58.0159619,26.3413464 55.4961781,27.8951122 L45.0543317,33.9049325 Z M36.9861792,38.5485025 C37.0035455,38.4161565 37.01558,38.2801428 37.0213687,38.1400028 C37.0658507,37.0401254 36.7361964,35.8155434 36.09334,34.6919783 C35.4504836,33.5684131 34.5628239,32.6652208 33.5936645,32.1488271 C33.4614372,32.078375 33.3295145,32.0158699 33.1982012,31.9616172 L40.9459918,27.496699 C42.2627811,31.6093569 41.7431642,35.4759675 39.4372596,37.1379331 L36.9861792,38.5485025 Z M28.0030989,44.0727996 L28.0030989,46.9041776 C26.8800806,47.338963 25.7622416,48.3304879 24.9571478,49.7292898 C24.5408145,50.4526077 24.2609739,51.1941118 24.1129037,51.9067321 L18.673912,55.0565962 L18.673912,46.7623565 L28.0029466,41.3590963 L28.0029466,41.8731977 L28.0029466,44.0727996 L28.0030989,44.0727996 Z M13.0446531,52.503053 L5.56314521,48.1700222 L5.56314521,44.4826746 L13.0446531,48.8157054 L13.0446531,52.503053 Z M13.958667,47.9331444 L5.25847393,42.8943705 C5.06988241,42.7852538 4.83757056,42.7852538 4.64913138,42.8943705 C4.46053985,43.0034871 4.3444601,43.2053682 4.3444601,43.4237542 L4.3444601,44.5534324 L1.21868511,42.6678847 L1.21868511,37.3532627 L17.4552269,46.7573133 L17.4552269,52.4634714 L14.2631859,50.5372725 L14.2631859,48.462681 C14.2633382,48.2441421 14.1471062,48.0424138 13.958667,47.9331444 Z M3.02066339,25.6551647 L19.3291076,35.1004779 L17.6774846,45.4740466 L1.30231738,35.9897632 L3.02066339,25.6551647 Z M54.4826891,8.25748006 L52.8485847,9.19872566 C52.0747196,8.53928829 51.2626183,7.97613031 50.4267527,7.53064712 C49.3156165,6.93860533 48.2200186,6.57916229 47.1774335,6.45384627 C49.2552916,5.48753747 51.9888023,6.25486888 54.4826891,8.25748006 Z M51.7252617,9.84578425 L39.4320802,16.9269037 C38.6615666,16.2715926 37.8531213,15.7116439 37.0212164,15.2683003 C35.8902766,14.6657136 34.7757891,14.3052008 33.7167517,14.1861506 L44.1578364,8.17189839 C46.2650953,7.01150257 49.1253493,7.75636879 51.7252617,9.84578425 Z M55.733974,14.6333148 C56.1675212,15.3911711 56.5354118,16.1592666 56.8426728,16.9253754 L44.4999823,24.0384352 C44.1837335,23.2701868 43.8120345,22.5080515 43.3854947,21.7624211 C42.5283021,20.2641305 41.5038449,18.9229434 40.3730575,17.7946407 L52.694878,10.6970163 C53.815002,11.7735115 54.8578917,13.1020141 55.733974,14.6333148 Z M29.221784,29.7939556 C29.221784,29.5755695 29.1023529,29.3736885 28.9139137,29.2645718 L27.4333636,28.4069212 C26.8791665,26.910923 27.0450601,25.4723867 27.8471072,25.0100928 C28.8481047,24.4344033 30.5461901,25.4392238 31.5557183,27.2043459 C32.5896203,29.0127172 32.4776536,30.7263374 31.7714256,31.3740073 L31.336812,31.6244865 C30.7541282,31.8039024 29.9650296,31.5505195 29.221784,30.952976 C29.221784,30.952976 29.221784,29.8251318 29.221784,29.7939556 Z M32.612623,26.5959518 C31.8613036,25.2822731 30.8226792,24.3404162 29.7697353,23.9022686 L36.3701339,20.1003027 C37.4939139,21.178479 38.5403074,22.5100382 39.418827,24.0457708 C39.8508509,24.8008762 40.2176751,25.5662209 40.5241744,26.3295789 L33.4993688,30.3780506 C33.6433259,29.2473027 33.3514509,27.8880823 32.612623,26.5959518 Z M40.475884,23.4373768 C39.6188437,21.9393918 38.5946912,20.5985104 37.4642084,19.4703605 L39.2789829,18.4250415 C40.4030676,19.5032177 41.4497658,20.8350826 42.3285901,22.3711208 C42.7603093,23.1257678 43.1268288,23.8905012 43.4333281,24.6532478 L41.5909809,25.7149191 C41.2745798,24.9460594 40.9028808,24.1834656 40.475884,23.4373768 Z M36.5232312,18.6024706 C35.7524129,17.9468539 34.943663,17.3865995 34.1116057,16.9431031 C32.9925481,16.3467822 31.8893334,15.986575 30.8401978,15.8637042 C32.9352699,14.772385 35.7472335,15.5203077 38.3083002,17.5741151 L36.5232312,18.6024706 Z M27.770787,17.6219491 C29.8813973,16.4062309 32.7730324,17.1431502 35.3996035,19.249682 L27.2405067,23.9494914 L27.240659,23.9496442 C27.2405067,23.9496442 27.2405067,23.949797 27.2403543,23.949797 C27.0868,24.0382824 26.9483269,24.1446482 26.8200603,24.2621701 C26.668791,23.7914709 26.4632903,23.3158813 26.1963982,22.8491556 C25.5614633,21.739039 24.6843147,20.8463916 23.7265805,20.3358052 C23.6009036,20.2688681 23.475379,20.2095722 23.3506161,20.1573063 L27.7663693,17.6136966 L27.770787,17.6219491 Z M28.0030989,30.8507365 L28.0030989,39.9471515 L18.9574086,45.1864311 L20.5528198,35.1652755 L28.0030989,30.8507365 Z M29.221784,41.8730449 L29.221784,32.4214659 C29.4429754,32.5428085 29.6655377,32.6413802 29.8873384,32.7174868 C28.9990693,33.9546004 29.0866623,36.0826805 30.2243049,38.0713846 C30.8671612,39.1949498 31.754821,40.0979892 32.7239804,40.6145358 C32.8473722,40.6802503 32.9703071,40.7375594 33.0929373,40.7892141 L29.2216317,43.0172413 L29.2216317,41.8730449 L29.221784,41.8730449 Z M34.8441878,39.781337 C34.2771945,39.976341 33.6450016,39.7209714 33.295696,39.5348313 C32.5267057,39.125109 31.8113375,38.3892594 31.2813619,37.4628378 C30.2558383,35.6702074 30.2491356,33.6607191 31.26689,33.0747903 C31.4722384,32.956657 31.6928204,32.911421 31.9102034,32.911421 C32.3419226,32.911421 32.7609979,33.089767 33.0219489,33.2288373 C33.7909392,33.6387124 34.5063073,34.3745619 35.036283,35.3008307 C35.5662587,36.2270995 35.8387872,37.2180131 35.8035976,38.0907933 C35.7876024,38.4873727 35.6882796,39.164232 35.2338623,39.5571436 L34.8441878,39.781337 Z M42.144721,35.5794297 C42.5616636,34.6140378 42.8044866,33.4852766 42.8552144,32.2258506 C42.9239178,30.5226225 42.6337184,28.6956065 42.0236141,26.8754677 L43.8548408,25.8202151 C45.1723918,29.9340956 44.6526226,33.8020817 42.345804,35.4637416 L42.144721,35.5794297 Z M57.9094793,16.3105628 C57.5923165,15.5389523 57.2195512,14.7736076 56.791031,14.0246152 C55.9364281,12.5307565 54.9154746,11.1930843 53.7886479,10.0669212 L55.4526101,9.10840642 C56.5741051,10.1855129 57.6183659,11.5152382 58.4955145,13.0483728 C58.9281477,13.804548 59.2952766,14.5708096 59.6020806,15.3350845 L57.9094793,16.3105628 Z M55.9221085,1.39551083 C55.93003,1.39138457 55.9379514,1.38695266 55.9458729,1.38252076 C56.331282,1.16031405 56.7739694,1.21181588 57.077422,1.29449389 C58.0065171,1.54695983 58.9934997,2.42142116 59.6537223,3.57738506 C59.9064472,4.01813068 60.1025031,4.48439798 60.2315314,4.94623338 L55.6061644,7.6105743 C54.833518,6.95266517 54.0227878,6.39057696 53.1882931,5.94601073 C52.0629898,5.34632771 50.9536816,4.98596773 49.8993667,4.86508361 L55.9221085,1.39551083 Z M21.4307301,21.2632966 C22.0319988,20.9169964 22.768694,21.2101137 23.1545602,21.4156625 C23.9122776,21.8195775 24.6171346,22.5447293 25.1391889,23.4577024 C26.0454336,25.0429501 26.071026,26.5553005 25.5902547,27.3394426 L21.0306967,24.698331 C20.4570007,23.1864391 20.6169531,21.7312449 21.4307301,21.2632966 Z M11.1541678,20.3888352 L27.3905573,29.7939556 L19.996947,34.0756374 L3.76055759,24.6720452 L11.1541678,20.3888352 Z M1.21868511,44.0945006 L4.3444601,45.9803539 L4.3444601,47.4642791 L1.21868511,45.653921 L1.21868511,44.0945006 Z M14.2633382,53.208949 L14.2633382,51.9640412 L17.4553792,53.8902402 L17.4553792,55.057666 L14.2633382,53.208949 Z M29.9004393,52.5924553 C28.8360702,54.442242 27.0464311,55.4897006 25.9925731,54.879167 C24.9388675,54.2687863 24.9480076,52.1903742 26.0125291,50.3405874 C26.0125291,50.3405874 26.0125291,50.3405874 26.0125291,50.3405874 C26.8707881,48.8493268 28.2002212,47.8796558 29.2354942,47.8796558 C29.4842583,47.8796558 29.7162655,47.9357424 29.9203953,48.0538757 C30.5576152,48.4229466 30.6820734,49.2527832 30.6994397,49.7146186 C30.7337152,50.615977 30.4499139,51.6380668 29.9004393,52.5924553 Z M56.2919794,37.3072625 C55.2276103,39.1570493 53.4382759,40.204355 52.3841133,39.5939743 C51.3304077,38.9835936 51.3395478,36.9051815 52.4040693,35.0553947 C53.4685907,33.205608 55.2583821,32.1583022 56.3119354,32.7688358 C57.365641,33.3792165 57.3565009,35.4574758 56.2919794,37.3072625 Z M64.0301729,32.9338861 C62.9654991,34.7836729 61.1757077,35.830673 60.1221544,35.2204451 C59.4849344,34.8513741 59.3604762,34.0216904 59.34311,33.559855 C59.3089868,32.6584965 59.5927881,31.6364068 60.1421104,30.6818655 C60.6912804,29.7273242 61.4317839,28.9697735 62.226976,28.5487423 C62.4967624,28.4058514 62.9292433,28.2230734 63.3758913,28.2230734 C63.6036331,28.2230734 63.835031,28.2706018 64.0501289,28.3953066 C64.6873489,28.7643775 64.8118071,29.5940613 64.8291733,30.0558967 C64.8632965,30.9572551 64.5794952,31.9793448 64.0301729,32.9338861 Z M66.0670528,27.7442745 L65.469897,28.0901162 C65.2547991,27.7788128 64.9831847,27.5240545 64.6594714,27.336539 C63.8111143,26.8450556 62.7455265,26.8916671 61.6580023,27.4675095 C60.6624889,27.9947537 59.7493891,28.9191887 59.0867291,30.0705678 C58.6758799,30.7842579 58.3888795,31.5379879 58.2400476,32.2767411 L57.7830407,32.5412802 C57.562611,32.1989535 57.2756107,31.9151586 56.921278,31.7099154 C55.2390355,30.7356597 52.7914588,31.9367068 51.3485356,34.444097 C51.3485356,34.444097 51.3485356,34.444097 51.3485356,34.444097 C50.9031062,35.2183056 50.6133638,36.0132982 50.4747384,36.7713073 L31.3285859,47.7309577 C31.115316,47.4276012 30.84751,47.1792615 30.5298901,46.9952609 C30.1293997,46.7632734 29.685189,46.6559907 29.221784,46.6590472 L29.221784,44.4270466 L66.0672051,23.2206717 L66.0672051,27.7442745 L66.0670528,27.7442745 Z M70.0209243,19.5353109 L61.2112019,24.6057194 C61.6343903,23.6351316 61.880717,22.4979651 61.9319018,21.2282998 C62.0006052,19.5261414 61.7107105,17.7000424 61.1013679,15.8809734 L66.236907,12.9213757 C66.8500579,12.5681984 67.5997016,12.8663589 67.9919659,13.0752699 C68.7609562,13.4849921 69.4764767,14.2208417 70.0064524,15.1472633 C71.0319759,16.9398938 71.0386787,18.949382 70.0209243,19.5353109 Z" id="Shape"></path>
                </g>
            </g>
        </g>
    </g>
</svg>
