<?xml version="1.0" encoding="UTF-8"?>
<svg width="72px" height="65px" viewBox="0 0 72 65" version="1.1" xmlns="http://www.w3.org/2000/svg" xmlns:xlink="http://www.w3.org/1999/xlink">
    <!-- Generator: Sketch 48.2 (47327) - http://www.bohemiancoding.com/sketch -->
    <title>refrigerator-truck</title>
    <desc>Created with Sketch.</desc>
    <defs></defs>
    <g id="SubPage---Compare" stroke="none" stroke-width="1" fill="none" fill-rule="evenodd" transform="translate(-459.000000, -2001.000000)">
        <g id="Find-truck-bar" transform="translate(0.000000, 1929.000000)" fill-rule="nonzero">
            <g id="Types" transform="translate(443.000000, 49.000000)">
                <g id="refrigerator-truck" transform="translate(16.000000, 23.000000)">
                    <path d="M71.6866756,13.6676411 L47.8401768,0.0828655942 C47.6464456,-0.0275445332 47.4072596,-0.0276991692 47.2132149,0.0828655942 L13.9340732,19.0396969 C13.7400284,19.150107 13.6205922,19.3543812 13.6205922,19.5753561 L13.6205922,29.1236672 L6.98153508,32.8493131 C6.89156604,32.8997245 6.75990403,33.0512678 6.75990403,33.0512678 L0.0952982204,43.5773426 C0.0329155037,43.6756911 0,43.7891939 0,43.9050163 L0,53.9446061 C0,54.165581 0.119436256,54.3697006 0.313324248,54.4801107 L18.4480427,64.8173748 C18.545065,64.8727345 18.6533727,64.9004144 18.7616804,64.9004144 C18.8698313,64.9004144 18.978139,64.8727345 19.0751614,64.8175295 C19.1127791,64.7960351 23.0482194,62.5671113 23.0482194,62.5671113 C23.2968098,63.4793093 23.8079406,64.1852227 24.5432103,64.6041318 C25.0070054,64.8682501 25.5262866,65 26.0786401,65 C26.7369502,65 27.4422824,64.8131997 28.1563921,64.4411454 C29.3756764,63.8062098 30.4952738,62.6906655 31.3089137,61.3001783 C32.0783528,59.9853081 32.4946555,58.5600278 32.4935583,57.2595387 C32.4935583,57.2595387 35.5761736,55.5277698 35.6036032,55.5089042 C35.6036032,55.5089042 37.7514182,56.7436729 37.7819826,56.7611468 C37.879005,56.8163519 37.9871559,56.8440317 38.0954636,56.8440317 C38.2036145,56.8440317 38.3119222,56.8163519 38.4089446,56.7611468 L53.3922386,48.2270934 C53.6666912,49.0092425 54.1503924,49.6212919 54.8008654,49.9921091 C55.2648173,50.2563821 55.7842553,50.388132 56.3369223,50.388132 C56.9950756,50.388132 57.7004078,50.2013317 58.4145175,49.829432 C59.6338018,49.1944964 60.7530857,48.0791067 61.5662554,46.6887742 C62.285224,45.461428 62.6968246,44.1307849 62.7457276,42.8997275 L71.6865189,37.8074083 C71.8804068,37.6968435 71.9999998,37.4927239 71.9999998,37.271749 L71.9999998,14.2031457 C72.0001566,13.98248 71.8807203,13.7782058 71.6866756,13.6676411 Z M47.5266959,1.33278865 L70.1192707,14.2031457 L38.0956203,32.442775 L15.5014781,19.5752014 L47.5266959,1.33278865 Z M14.8745161,20.6466745 L37.4686584,33.5142481 L37.4686584,55.14319 L35.8730401,54.2340848 L35.8730401,38.2054414 C35.8730401,37.9844665 35.7534471,37.7801923 35.5595591,37.6697822 L17.4231166,27.3416416 C17.2303258,27.23185 16.9930207,27.2312314 16.7997596,27.3396313 L14.8746729,28.4199186 L14.8745161,20.6466745 Z M17.1072845,28.5901729 L33.9851009,38.2014209 L25.4286373,43.0036429 L8.55238831,33.3910032 L17.1072845,28.5901729 Z M22.8764318,61.2400249 L19.3886424,63.2005005 L19.3886424,61.7356333 L23.0558997,59.674335 C22.934896,60.2061283 22.8737673,60.732664 22.8764318,61.2400249 Z M7.49877871,34.2192338 L24.5504203,43.931923 L23.393989,45.7584838 L6.34548216,36.0406916 L7.49877871,34.2192338 Z M22.7292525,46.8084625 L18.4355034,53.590335 L1.38699663,43.8720788 L5.68090246,37.090361 L22.7292525,46.8084625 Z M18.1347184,54.8475259 L18.1347184,55.7626619 L1.25392395,46.1401255 L1.25392395,45.2249895 L18.1347184,54.8475259 Z M1.25392395,47.5688078 L4.27290261,49.2897522 L4.27290261,52.8981841 L1.25392395,51.1772397 L1.25392395,47.5688078 Z M5.52682656,50.00448 L13.8196526,54.7315489 L13.8196526,58.3399807 L5.52682656,53.6129118 L5.52682656,50.00448 Z M15.0735766,55.4464313 L18.1347184,57.1913442 L18.1347184,60.7997761 L15.0735766,59.0548631 L15.0735766,55.4464313 Z M25.8736236,44.1771757 L30.0697233,41.8220689 L30.0697233,47.3691727 L20.4185842,52.7930316 L25.8736236,44.1771757 Z M1.25392395,53.5877061 L1.25392395,52.605922 L18.1347184,62.2284584 L18.1347184,63.2102426 L1.25392395,53.5877061 Z M30.223329,60.6817888 C29.5261473,61.8731048 28.5842937,62.8196319 27.5712799,63.3472501 C26.6527806,63.825694 25.7999555,63.8917236 25.170329,63.532968 C24.5407024,63.1742124 24.1722055,62.4127845 24.1328636,61.3886301 C24.0894465,60.2593231 24.4494794,58.9812563 25.1466612,57.790095 C26.5098332,55.460967 28.8234797,54.1552204 30.1996612,54.9389158 C30.8292878,55.2976714 31.1977847,56.0590992 31.2371265,57.0832537 C31.2803869,58.212406 30.920354,59.4904728 30.223329,60.6817888 Z M34.6191162,54.6410868 L32.3283539,55.9288957 C32.0822713,55.0047907 31.5684759,54.290063 30.8264664,53.8674427 C28.7940125,52.709992 25.8223694,54.1612512 24.0606063,57.1715508 C23.92001,57.4118552 23.7919531,57.6560255 23.6753381,57.9023607 L19.3886424,60.3118994 L19.3886424,54.7957228 L31.0070315,48.2665256 C31.2028004,48.1565794 31.3236473,47.9513774 31.3236473,47.7290108 L31.3236473,41.1186296 L34.6189594,39.2691827 L34.6189594,54.6410868 L34.6191162,54.6410868 Z M60.480514,46.0703847 C59.7838025,47.261546 58.8421056,48.2080732 57.8292485,48.7355367 C56.9105925,49.213826 56.0576107,49.2797009 55.4281409,48.9210999 C54.8961637,48.6178587 54.634407,48.0851375 54.5065068,47.5927764 L55.8621553,46.8206787 C56.0013409,47.1061368 56.2002446,47.2658758 56.3486778,47.3498432 C56.538804,47.4579338 56.7405291,47.5074173 56.94774,47.5074173 C57.8381827,47.5074173 58.8341118,46.5958379 59.4772181,45.4982314 C59.6682847,45.1719493 59.8264359,44.8298944 59.9450885,44.495262 L61.4008942,43.6661036 C61.2530879,44.4610875 60.9399204,45.2860707 60.480514,46.0703847 Z M56.9656084,46.1922379 L57.7290913,45.7574013 C57.4004065,46.0903327 57.1152956,46.2465151 56.9834768,46.26569 C56.9773639,46.2485254 56.9712511,46.2225465 56.9656084,46.1922379 Z M38.7225823,55.1543238 L38.7225823,33.5142481 L70.7462326,15.2747734 L70.7462326,36.9148491 L38.7225823,55.1543238 Z" id="Shape" fill="#FF5959"></path>
                    <path d="M26.5656241,56.1644547 C25.8931521,55.5680052 25.0053509,56.6818605 24.4761875,58.0916061 C24.2188811,58.7769193 24.0536942,59.5011908 24.0111937,60.1306422 C23.9373934,61.2226034 24.2455748,61.6690148 24.4357806,61.8378881 C24.5248643,61.9169317 24.6609498,62 24.8397453,62 C25.0431408,62 25.3019127,61.892623 25.6095708,61.5497249 C25.942771,61.1783325 26.2680154,60.5963718 26.5254265,59.9108976 C27.0544852,58.5013129 27.2382007,56.761709 26.5656241,56.1644547 Z M25.7999858,59.2669576 C25.4253319,60.2645817 25.0025245,60.679601 24.8591113,60.7100272 C24.8045724,60.5038054 24.8267648,59.7331702 25.2013141,58.7353851 C25.5758634,57.7377611 25.9986707,57.3227417 26.142084,57.2921546 C26.1967276,57.4986984 26.1745351,58.2693336 25.7999858,59.2669576 Z" id="Shape" fill="#FF5959"></path>
                </g>
            </g>
        </g>
    </g>
</svg>
