<?xml version="1.0" encoding="UTF-8"?>
<svg width="72px" height="53px" viewBox="0 0 72 53" version="1.1" xmlns="http://www.w3.org/2000/svg" xmlns:xlink="http://www.w3.org/1999/xlink">
    <!-- Generator: Sketch 48.2 (47327) - http://www.bohemiancoding.com/sketch -->
    <title>pickup</title>
    <desc>Created with Sketch.</desc>
    <defs></defs>
    <g id="SubPage---Compare" stroke="none" stroke-width="1" fill="none" fill-rule="evenodd" transform="translate(-607.000000, -2007.000000)">
        <g id="Find-truck-bar" transform="translate(0.000000, 1929.000000)" fill-rule="nonzero">
            <g id="Types" transform="translate(443.000000, 49.000000)">
                <g id="pickup" transform="translate(164.000000, 29.000000)">
                    <path d="M37.162284,42.1775503 C36.7952737,41.9892994 36.0086683,41.783395 34.8640879,42.5198684 C34.1803032,42.9600834 33.5115169,43.6519415 32.9807887,44.4683373 C31.5613572,46.6520797 31.8342205,48.3155243 32.837671,48.8300446 C33.0557809,48.9419038 33.3096703,49 33.5881355,49 C34.5897789,49 35.9081968,48.2476384 37.0189855,46.5390971 C38.4387785,44.3555152 38.1657344,42.6920706 37.162284,42.1775503 Z M35.7672475,45.8971503 C34.8386086,47.3254819 33.7523956,47.8159292 33.5603071,47.7181928 C33.3693027,47.6202959 33.3037071,46.5394181 34.2327074,45.1102841 C34.6579044,44.4563008 35.1971257,43.8910667 35.7123134,43.5593407 C36.1657003,43.2675759 36.4121808,43.2757607 36.4392864,43.2892416 C36.6304715,43.387299 36.6962478,44.4681768 35.7672475,45.8971503 Z" id="Shape" fill="#FF5959"></path>
                    <path d="M65.1623928,26.1698543 C64.159893,25.6559644 62.4006395,26.2769013 60.9810939,28.4608532 C60.4502099,29.2771068 60.1099598,30.1376557 60.0226838,30.8836146 C59.876501,32.131908 60.4706285,32.6342426 60.8378022,32.8224977 C61.0072948,32.9094835 61.266051,33 61.6082887,33 C62.0074456,33 62.5198986,32.876583 63.1358903,32.4800115 C63.8196429,32.0399471 64.4883978,31.347913 65.0191011,30.5314989 C66.4386467,28.347868 66.1657962,26.6843861 65.1623928,26.1698543 Z M63.7674219,29.8896982 C63.3422448,30.5436961 62.8030488,31.1089429 62.2878853,31.4406764 C61.8345198,31.7322872 61.5875087,31.7242627 61.5609465,31.7107815 C61.5343842,31.6971398 61.4030184,31.5111316 61.460841,31.0165005 C61.5264336,30.4544635 61.8081382,29.7569727 62.2331345,29.1031353 C63.0865604,27.7903247 64.073159,27.2701757 64.3758244,27.2701757 C64.4025673,27.2701757 64.4242508,27.274188 64.4397906,27.2822125 C64.6306053,27.3797906 64.6961979,28.4605322 63.7674219,29.8896982 Z" id="Shape" fill="#FF5959"></path>
                    <path d="M71.6688396,12.3930587 L50.3807361,0.088728372 C50.1758502,-0.029576124 49.9233011,-0.029576124 49.7187463,0.088728372 L34.3455219,8.97581514 L26.5439718,4.43898684 C26.3390859,4.31985388 26.0862058,4.31952249 25.8809889,4.43782699 L15.0591102,10.6811231 C14.9306841,10.7551877 14.8307237,10.8705097 14.7754475,11.0082002 L9.96195397,22.9945665 L0.213326223,30.545177 C0.0774528102,30.6706063 0,30.8474003 0,31.0324789 L0,39.3237351 C0,39.5605098 0.12627456,39.7793897 0.330994916,39.8976942 L22.8470895,52.9111888 C22.9495325,52.970341 23.0638912,53 23.1780845,53 C23.2922777,53 23.4066364,52.970341 23.5090794,52.9111888 C23.5216572,52.9038983 29.7332733,49.3423365 29.7332733,49.3423365 C30.0036961,50.6093876 30.6545976,51.6365158 31.6763789,52.2270442 C32.2506551,52.5589264 32.8946057,52.7241219 33.5809237,52.7241219 C34.4049355,52.7241219 35.2900159,52.4856903 36.1880051,52.0111467 C37.7339169,51.1941167 39.1547125,49.7565679 40.1887407,47.9632772 C41.2229343,46.1699865 41.7560016,44.2192879 41.6898026,42.4705685 C41.6893061,42.4576444 41.6879821,42.4450518 41.6874856,42.4321278 L56.5834153,33.8219133 C56.8746908,35.0616251 57.5279093,36.0160143 58.4856431,36.5697589 C59.0733246,36.9094287 59.7243916,37.0709789 60.4060756,37.0708133 C62.6773627,37.0708133 65.2849407,35.2770255 66.9981703,32.3061577 C68.0535476,30.4759175 68.5518605,28.575258 68.514127,26.9247943 L71.6690051,25.1010162 C71.8737254,24.9827117 72,24.7638318 72,24.5270571 L72,12.9666864 C71.9998345,12.7302431 71.8735599,12.5115289 71.6688396,12.3930587 Z M48.9951914,17.4761754 C48.9529895,17.4518186 42.9618161,13.9863585 42.9618161,13.9863585 L50.0502377,9.88861551 L62.6940779,17.198309 L49.3266828,24.9253821 L49.3266828,18.0504659 C49.3266828,17.8135255 49.2002427,17.5946456 48.9951914,17.4761754 Z M37.0123479,24.6221647 L36.5941359,25.6635425 L15.267306,13.3366779 L15.685849,12.2944717 L37.0123479,24.6221647 Z M36.095161,26.9059054 L32.7039526,35.3499302 L11.3779502,23.0219058 L14.7684966,14.5790408 L36.095161,26.9059054 Z M38.373399,24.7860346 L45.57138,20.6107475 L45.57138,27.3312382 L34.3693535,34.756088 L38.373399,24.7860346 Z M46.8953596,19.8427624 L48.0025376,19.200538 L48.0025376,25.719878 L46.8953596,26.4537303 L46.8953596,19.8427624 Z M64.0178921,16.432975 L50.7122275,8.74069738 L50.7122275,1.81093696 L70.013865,12.9671835 L64.0178921,16.432975 Z M49.3882478,1.81043988 L49.3882478,8.74069738 L41.6419738,13.2188705 L35.6653641,9.74330313 L49.3882478,1.81043988 Z M26.2101634,5.77778281 L47.3291285,18.0590819 L37.8348703,23.5663716 L16.6257091,11.3072753 L26.2101634,5.77778281 Z M10.6543953,24.1342 L31.9383614,36.4378676 L23.1242978,43.2519746 L1.84132472,30.9486384 L10.6543953,24.1342 Z M29.59078,47.8940177 L23.8399088,51.2179764 L23.8399088,49.0924721 L29.9103555,45.5836005 C29.6986843,46.3815759 29.5934279,47.1604967 29.59078,47.8940177 Z M1.32397966,32.1800656 L2.5516398,32.8897269 L2.5516398,35.3555638 L1.32397966,34.6459025 L1.32397966,32.1800656 Z M3.87561947,33.6550609 L6.85788366,35.3790921 L6.84894679,35.3790921 L6.84894679,37.8394611 L3.87561947,36.1208977 L3.87561947,33.6550609 Z M8.17292645,36.1392896 L15.7030608,40.4923649 L15.7030608,42.9575389 L8.17292645,38.6047951 L8.17292645,36.1392896 Z M17.0270404,41.2578645 L20.0003678,43.0011161 L20.0003678,45.4417677 L17.0270404,43.7230386 L17.0270404,41.2578645 Z M21.3243474,43.7419276 L22.5160946,44.4308773 L22.5160946,46.89572 L21.3243474,46.2067703 L21.3243474,43.7419276 Z M1.32397966,38.941151 L1.32397966,36.1765704 L22.5160946,48.4263879 L22.5160946,51.1894773 L1.32397966,38.941151 Z M39.0420088,47.3008383 C38.1309453,48.880717 36.8978237,50.1373294 35.5698721,50.8392032 C34.341219,51.488221 33.1936596,51.5735527 32.3383687,51.0792917 C30.4988645,50.0158768 30.4604691,46.4889447 32.254627,43.3775696 C33.689159,40.8898613 35.9392624,39.2851288 37.723987,39.2851288 C38.1714921,39.2851288 38.5897042,39.3860356 38.9585981,39.5991162 C39.8140544,40.0935428 40.3140222,41.1312754 40.3668159,42.5211047 C40.4235815,44.0236049 39.9530723,45.7211253 39.0420088,47.3008383 Z M65.851273,31.6437188 C64.0569495,34.7550939 60.9874682,36.4857528 59.1473019,35.4220065 C58.2918456,34.9275798 57.7918778,33.8898473 57.7390841,32.5001837 C57.6821529,30.9976834 58.1526622,29.300163 59.0637257,27.7202844 C59.9747892,26.1405714 61.2079108,24.8839589 62.5358624,24.1820852 C63.2374061,23.8112652 63.9124702,23.6245297 64.5219974,23.6245297 C64.9797633,23.6245297 65.4006234,23.7300759 65.7673657,23.9421624 C67.607201,25.0052459 67.6454309,28.532178 65.851273,31.6437188 Z M70.6758548,24.1448044 L68.3312524,25.5001696 C68.0391493,24.3154677 67.4028116,23.3566048 66.4295211,22.7940785 C65.1657825,22.0633743 63.5636016,22.1400899 61.9178949,23.0098103 C60.3719831,23.8268403 58.9511874,25.2642234 57.9171593,27.0575141 C56.9144102,28.7962919 56.3846529,30.6823705 56.4134494,32.3896667 L41.4771384,41.0230782 C41.1668306,39.8693608 40.5321479,38.9781004 39.6204224,38.4510324 C37.073913,36.9796823 33.3349944,38.8523398 31.1078951,42.7146336 C30.9309784,43.0213306 30.7716043,43.3300158 30.6259666,43.6391982 L23.8399088,47.5619698 L23.8399088,44.3732163 L33.3470758,37.0234252 L48.920552,26.7009437 C48.990061,26.6717818 49.055598,26.6318499 49.1125291,26.579491 L70.6758548,14.1149359 L70.6756893,24.1448044 L70.6758548,24.1448044 Z" id="Shape" fill="#FF5959"></path>
                </g>
            </g>
        </g>
    </g>
</svg>
