<?xml version="1.0" encoding="UTF-8"?>
<svg width="72px" height="62px" viewBox="0 0 72 62" version="1.1" xmlns="http://www.w3.org/2000/svg" xmlns:xlink="http://www.w3.org/1999/xlink">
    <!-- Generator: Sketch 48.2 (47327) - http://www.bohemiancoding.com/sketch -->
    <title>truck (1)</title>
    <desc>Created with Sketch.</desc>
    <defs></defs>
    <g id="SubPage---Compare" stroke="none" stroke-width="1" fill="none" fill-rule="evenodd" transform="translate(-902.000000, -2002.000000)">
        <g id="Find-truck-bar" transform="translate(0.000000, 1929.000000)" fill="#FF5959" fill-rule="nonzero">
            <g id="Types" transform="translate(443.000000, 49.000000)">
                <g id="truck-(1)" transform="translate(459.000000, 24.000000)">
                    <path d="M71.6993664,24.8266599 L71.7155328,24.7989598 L49.7887223,12.2649806 C49.5979895,12.1558731 49.3632653,12.1549497 49.1715998,12.2622106 L39.3120975,17.7843758 L39.3120975,13.1473821 C39.3120975,12.8074405 39.0336929,12.5318247 38.6903117,12.5318247 C38.3469305,12.5318247 38.0685259,12.8074405 38.0685259,13.1473821 L38.0685259,18.4808789 L32.1276733,21.8082743 L17.385287,13.38114 L17.385287,0.61555737 C17.385287,0.275615813 17.1068824,0 16.7635011,0 C16.4201199,0 16.1417153,0.275615813 16.1417153,0.61555737 L16.1417153,13.3743689 L2.74145368,20.9341828 C2.57730222,21.0268242 2.46709068,21.1873308 2.43677863,21.3683047 L2.43584595,21.3681508 C2.43584595,21.3681508 0,35.8014322 0,35.8762224 L0,47.9160629 C0,48.1359708 0.118450199,48.3392586 0.31089291,48.4491356 L22.2377035,60.9809603 C22.3342357,61.0360527 22.4414938,61.0632911 22.5482855,61.0632911 C22.6550772,61.0632911 22.7610917,61.0355911 22.855914,60.9820376 L33.0329934,55.2593546 C33.0337707,55.292133 33.0334598,55.3252192 33.0347034,55.3579977 C33.0912859,56.8353353 33.6847804,57.9702692 34.7059082,58.5539715 C35.181108,58.8255862 35.7072943,58.9546994 36.2577301,58.9546994 C38.0733447,58.9546994 40.1499539,57.5489202 41.509955,55.2167272 C42.6109822,53.3288128 42.9456584,51.3422553 42.5517571,49.8279841 L60.9605035,39.3071853 C61.0326307,40.687265 61.5969013,41.8312783 62.6354391,42.4249834 C63.1106389,42.6965981 63.6368251,42.8257113 64.187261,42.8257113 C66.0028756,42.8257113 68.0794848,41.4199321 69.4394858,39.0877391 C70.2585332,37.683345 70.6807258,36.1541466 70.6280294,34.7816075 C70.6154383,34.4532077 70.5748668,34.1429668 70.5105119,33.8507309 L71.6891069,33.1773111 C71.8815497,33.0674342 71.9999999,32.8641463 71.9999999,32.6442385 L71.9999999,25.3517303 C72.0001553,25.128283 71.8789071,24.9346902 71.6993664,24.8266599 Z M65.0175005,22.3918227 L52.2342059,29.617389 L42.1051594,23.8283797 L54.8387112,16.6300518 L54.7900565,16.5457204 L65.0175005,22.3918227 Z M49.4747204,13.5071754 L53.6416181,15.8890746 L40.5482077,23.2908442 C40.3548324,23.4001057 40.235294,23.6035474 40.2346722,23.8239169 C40.2342059,24.0442864 40.3526561,24.2481898 40.5455652,24.3585285 L51.9216031,30.8603532 C52.0178244,30.9152917 52.1250825,30.9428379 52.232496,30.9428379 C52.3388213,30.9428379 52.4453022,30.9159073 52.5407463,30.8618921 L66.2147491,23.1329538 L66.1660944,23.0486224 L70.1466118,25.3240302 L39.3120975,42.9211227 L39.3120975,19.1990805 L49.4747204,13.5071754 Z M25.0511289,37.4386609 L25.5431169,34.3894975 L38.0686813,27.3250533 L38.0686813,30.0967543 L25.0511289,37.4386609 Z M29.1367281,36.551335 L29.1367281,43.9391007 L23.4808088,47.1717002 L24.7996165,38.9974061 L29.1367281,36.551335 Z M38.0685259,19.8955837 L38.0685259,25.2044582 L33.3774628,22.5229364 L38.0685259,19.8955837 Z M16.7574387,14.4440537 L37.4366361,26.2647558 L24.9782245,33.2911893 L4.29902716,21.4724878 L16.7574387,14.4440537 Z M3.51588792,22.4462995 L24.2947264,34.322094 L23.7548609,37.6679561 L2.95690246,25.7810816 L3.51588792,22.4462995 Z M5.49891834,49.9927996 L1.24357164,47.5607324 L1.24357164,44.5263424 L5.49891834,47.0598226 L5.49891834,49.9927996 Z M16.4282031,56.239168 L6.74264543,50.7036145 L6.74264543,45.9216571 L16.4282031,51.4572106 L16.4282031,56.239168 Z M21.9271215,59.3820501 L17.6717748,56.9499829 L17.6717748,54.0480916 L21.9271215,56.5821874 L21.9271215,59.3820501 Z M21.9271215,55.1454765 L17.6717748,52.6113807 L17.6717748,51.1017262 C17.6717748,50.8818183 17.5533246,50.6785305 17.3608819,50.5686535 L6.43175252,44.322439 C6.2393098,44.212562 6.00225396,44.212562 5.8099667,44.322439 C5.61752399,44.432316 5.49907379,44.6356038 5.49907379,44.8555117 L5.49907379,45.6232656 L1.24357164,43.0897854 L1.24357164,36.9425217 L21.9271215,48.764301 L21.9271215,55.1454765 Z M22.1714833,47.4822489 L1.3174087,35.5629037 L2.73943287,27.0783687 L23.5448527,38.9693982 L22.1714833,47.4822489 Z M33.1710299,53.7660124 L23.1706931,59.3894368 L23.1706931,48.7706105 L30.0694068,44.8276577 C30.2618495,44.7176268 30.3802997,44.5144929 30.3802997,44.294585 L30.3802997,35.8499074 L38.0685259,31.5137674 L38.0685259,47.5828925 C37.8459266,47.6638383 37.6214619,47.7618658 37.3957536,47.879745 C36.1688148,48.5210019 35.0419834,49.6474719 34.2230915,51.0518661 C33.7105845,51.9307281 33.3536795,52.8583731 33.1710299,53.7660124 Z M40.4328665,54.6011699 C39.056699,56.9610629 36.7187843,58.2828185 35.3275386,57.4878262 C34.6898972,57.1234162 34.3169812,56.3505839 34.2771869,55.3115231 C34.233351,54.1676636 34.5966293,52.8736081 35.3000245,51.6674234 C36.0034197,50.4613927 36.9539748,49.5028159 37.9763462,48.9685121 C38.5101493,48.6895108 39.0221899,48.5488559 39.4820005,48.5488559 C39.8222728,48.5488559 40.1342538,48.6258006 40.4053525,48.7807671 C41.7965982,49.5759134 41.8091894,52.2412768 40.4328665,54.6011699 Z M41.0272937,47.7146218 C40.5135432,47.4210009 39.9317071,47.290195 39.312253,47.3203573 L39.312253,44.3421368 L51.1541639,37.5839325 L51.1541639,43.4900516 L42.0557275,48.6898185 C41.791313,48.2884751 41.4488645,47.9556125 41.0272937,47.7146218 Z M68.3625528,38.4720279 C66.9863853,40.8319209 64.6483152,42.1535226 63.2572249,41.3586842 C61.8661346,40.5635379 61.8535434,37.8980206 63.2297109,35.5382814 C63.9331061,34.3322507 64.8836611,33.3736739 65.9060325,32.8393702 C66.4398356,32.5603688 66.9518762,32.4197139 67.4116868,32.4197139 C67.7519591,32.4197139 68.0639402,32.4966586 68.3350388,32.6516252 C68.9726801,33.0160351 69.3455962,33.7890213 69.3853905,34.8280821 C69.4292264,35.9717877 69.065948,37.2659971 68.3625528,38.4720279 Z M70.7565837,32.2884463 L70.0620489,32.6853269 C69.785976,32.220735 69.4147699,31.8473994 68.9568246,31.5856337 C67.9358523,31.0020853 66.6461131,31.0605632 65.32544,31.7506031 C64.0985011,32.3918599 62.9716698,33.5183299 62.1527778,34.9227241 C61.5878854,35.8914575 61.2253843,36.8858904 61.0587457,37.829386 L52.3975801,42.7792367 L52.3975801,36.8741948 L70.7565837,26.3966389 L70.7564282,32.2884463 L70.7565837,32.2884463 Z" id="Shape"></path>
                </g>
            </g>
        </g>
    </g>
</svg>