<?xml version="1.0" encoding="utf-8"?>
<!-- Generator: Adobe Illustrator 21.0.0, SVG Export Plug-In . SVG Version: 6.00 Build 0)  -->
<svg version="1.1" id="Layer_1" xmlns="http://www.w3.org/2000/svg" xmlns:xlink="http://www.w3.org/1999/xlink" x="0px" y="0px"
	 viewBox="0 0 65 40" style="enable-background:new 0 0 65 40;" xml:space="preserve">
<style type="text/css">
	.st0{fill:#FF3D61;}
</style>
<title>delivery-truck(1)</title>
<desc>Created with Sketch.</desc>
<g id="Ti---HOME----Rev-7" transform="translate(-647.000000, -737.000000)">
	<g id="delivery-truck_x28_1_x29_" transform="translate(647.000000, 737.000000)">
		<path id="Shape" class="st0" d="M0,21.1l0,12.3c0,0.7,0.6,1.3,1.3,1.3h4.1c0.6,2.6,2.9,4.5,5.7,4.5c2.8,0,5.2-1.9,5.7-4.5v0h30.4
			c0.6,2.6,2.9,4.5,5.7,4.5c2.8,0,5.2-1.9,5.7-4.5h2.6c0.7,0,1.3-0.6,1.3-1.3v-1.5h1.1c0.7,0,1.3-0.6,1.3-1.3s-0.6-1.3-1.3-1.3h-1.1
			v-28C62.6,0.6,62,0,61.3,0L20.6,0c-0.7,0-1.3,0.6-1.3,1.3v7.7H11c-0.4,0-0.8,0.2-1,0.5c0,0-0.1,0-0.1,0L0.3,20.2c0,0,0,0,0,0
			C0.1,20.5,0,20.8,0,21.1z M49.7,33.4c0-1.8,1.5-3.3,3.3-3.3s3.3,1.5,3.3,3.3c0,1.8-1.5,3.3-3.3,3.3C51.2,36.6,49.7,35.2,49.7,33.4
			z M21.9,26.5H60v5.6h-1.3c-0.6-2.6-2.9-4.5-5.7-4.5c-2.8,0-5.2,1.9-5.7,4.5H21.9V26.5z M21.9,2.6H60v21.4H21.9V2.6z M9.7,19.8H4.1
			l5.6-6.3V19.8z M7.8,33.4c0-1.8,1.5-3.3,3.3-3.3s3.3,1.5,3.3,3.3c0,1.8-1.5,3.3-3.3,3.3S7.8,35.2,7.8,33.4z M2.6,22.4H11
			c0.7,0,1.3-0.6,1.3-1.3v-9.6h7v20.6h-2.4c-0.6-2.6-2.9-4.5-5.7-4.5c-2.8,0-5.2,1.9-5.7,4.5H2.6L2.6,22.4z"/>
		<path id="Shape_1_" class="st0" d="M24,21.8c0,0.7,0.6,1.3,1.3,1.3h10.8c0.7,0,1.3-0.6,1.3-1.3c0-0.7-0.6-1.3-1.3-1.3H25.3
			C24.6,20.5,24,21.1,24,21.8z"/>
		<path id="Shape_2_" class="st0" d="M38.3,21.8c0,0.7,0.6,1.3,1.4,1.3h0.8c0.8,0,1.4-0.6,1.4-1.3c0-0.7-0.6-1.3-1.4-1.3h-0.8
			C38.9,20.5,38.3,21.1,38.3,21.8z"/>
	</g>
</g>
</svg>
