<?xml version="1.0" encoding="UTF-8"?>
<svg width="23px" height="23px" viewBox="0 0 23 23" version="1.1" xmlns="http://www.w3.org/2000/svg" xmlns:xlink="http://www.w3.org/1999/xlink">
    <!-- Generator: Sketch 48.2 (47327) - http://www.bohemiancoding.com/sketch -->
    <title>speech-bubble</title>
    <desc>Created with Sketch.</desc>
    <defs></defs>
    <g id="Ti---HOME----Rev-7" stroke="none" stroke-width="1" fill="none" fill-rule="evenodd" transform="translate(-1076.000000, -3005.000000)">
        <g id="Footer" transform="translate(0.000000, 2967.000000)" fill="#FFFFFF" fill-rule="nonzero">
            <g id="speech-bubble" transform="translate(1076.000000, 38.000000)">
                <path d="M19.6288277,3.36992436 C15.1355261,-1.12330812 7.85542128,-1.12330812 3.36689969,3.36992436 C-0.954318107,7.69107561 -1.11684178,14.6030056 2.88410877,19.1201382 L3.00361147,19.2157389 C2.56862163,20.1526257 1.82292475,21.3093941 0.63745792,21.8925583 C0.245489048,22.0837597 0.336311104,22.6669239 0.766520841,22.7338444 C2.06193016,22.9346058 3.92139224,22.7099442 5.65657152,21.4002147 L5.68047206,21.4193349 C10.0877318,24.0101136 15.8525423,23.4173893 19.638388,19.6316019 C24.1221294,15.1431495 24.1221294,7.85837682 19.6288277,3.36992436 Z M15.2884895,16.4194187 C15.0351438,16.6775406 14.7674577,16.9165423 14.5284523,17.1842242 C14.1795044,17.5761871 13.7397345,17.700468 13.2426032,17.6717878 C12.5160268,17.6335475 11.8420315,17.3897657 11.1967169,17.0742834 C9.75790434,16.3763984 8.52941654,15.4060514 7.50169328,14.1823625 C6.74165607,13.278936 6.1154619,12.2942489 5.69959249,11.1805008 C5.49882795,10.6403569 5.3554247,10.090653 5.39844567,9.50748874 C5.42712632,9.14898615 5.56096935,8.84306393 5.8238753,8.5897221 C6.11068179,8.31726013 6.37836785,8.03523809 6.66039424,7.75799609 C7.02846257,7.39471346 7.48735295,7.3994935 7.85542128,7.75799609 C8.08486648,7.98265771 8.30475145,8.20731934 8.52941654,8.43198096 C8.74930151,8.65186255 8.96918649,8.86696411 9.18429136,9.0868457 C9.56670001,9.4740285 9.56670001,9.92335175 9.18429136,10.3105345 C8.91182519,10.5877765 8.63935902,10.8650186 8.35733264,11.1327005 C8.28563102,11.204401 8.2760708,11.2617614 8.31431167,11.3525821 C8.49595578,11.7923453 8.76364184,12.1843081 9.06000855,12.5475907 C9.65752207,13.283716 10.3362974,13.9385808 11.1489158,14.4452644 C11.3209997,14.5552052 11.512204,14.6316858 11.6938482,14.7320665 C11.7846702,14.7846469 11.8515917,14.7655268 11.9232933,14.6890462 C12.1957595,14.4070242 12.4777859,14.1297822 12.7550322,13.8525402 C13.1231005,13.4892575 13.5819909,13.4892575 13.9452791,13.8525402 C14.3946093,14.2970834 14.8391593,14.7416266 15.2837094,15.1909498 C15.6661181,15.5829127 15.6661181,16.041796 15.2884895,16.4194187 Z M11.0485336,8.99124501 L11.1919368,7.96831761 C12.1814192,8.10693861 13.0800795,8.55626186 13.7875355,9.26370698 C14.4615308,9.93769185 14.9013007,10.783758 15.0590443,11.7158647 L14.0408813,11.892726 C13.9165985,11.1709408 13.5772108,10.516076 13.056179,9.99505226 C12.5064665,9.44534829 11.8133509,9.09640577 11.0485336,8.99124501 Z M16.722522,11.7158647 C16.4930768,10.377455 15.8621025,9.16332625 14.9013007,8.19775927 C13.8879178,7.18439194 12.6020687,6.54386731 11.1823766,6.34310586 L11.3257798,5.32017846 C12.9653569,5.54962012 14.4567507,6.29052548 15.6278772,7.46641398 C16.7416424,8.58016203 17.472999,9.99027223 17.740685,11.5390034 L16.722522,11.7158647 Z" id="Shape"></path>
            </g>
        </g>
    </g>
</svg>