<?xml version="1.0" encoding="UTF-8"?>
<svg width="13px" height="13px" viewBox="0 0 13 13" version="1.1" xmlns="http://www.w3.org/2000/svg" xmlns:xlink="http://www.w3.org/1999/xlink">
    <!-- Generator: Sketch 46.2 (44496) - http://www.bohemiancoding.com/sketch -->
    <defs></defs>
    <g id="Page-1" stroke="none" stroke-width="1" fill="none" fill-rule="evenodd" opacity="1">
        <g id="SubPage---List-of-trucks" transform="translate(-845.000000, -704.000000)" fill-rule="nonzero" fill="#9B9B9B">
            <g id="Group-2" transform="translate(440.000000, 550.000000)">
                <g id="Truck-List" transform="translate(2.000000, 0.000000)">
                    <g id="Insure" transform="translate(316.000000, 142.000000)">
                        <g id="expand" transform="translate(87.000000, 12.000000)">
                            <path d="M12.673073,0 L0.324269066,0 C0.143528931,0 0,0.14612712 0,0.324136522 L0,6.24361333 C0,6.42427958 0.146186874,6.56774985 0.324269066,6.56774985 C0.502351257,6.56774985 0.651196074,6.42162273 0.651196074,6.24361333 L0.651196074,0.6509299 L12.3514619,0.6509299 L12.3514619,12.3464132 L6.71928031,12.3464132 C6.53854018,12.3464132 6.3923533,12.4925404 6.3923533,12.6732066 C6.3923533,12.8538729 6.53854018,13 6.71928031,13 L12.673073,13 C12.8538131,13 13,12.8538729 13,12.6732066 L13,0.326793378 C13,0.14612712 12.8538131,0 12.673073,0 Z" id="Shape"></path>
                            <path d="M0,12.6686762 C0,12.8518471 0.148152899,13 0.328630067,13 L4.91867624,13 C5.1018471,13 5.25,12.8518471 5.25,12.6686762 L5.25,8.08132376 C5.25,7.8981529 5.1018471,7.75 4.91867624,7.75 L0.331323756,7.75 C0.148152899,7.75 0.00269368907,7.8981529 0.00269368907,8.08132376 L0.00269368907,12.6686762 L0,12.6686762 L0,12.6686762 Z M0.659953822,8.40995382 L4.59004618,8.40995382 L4.59004618,12.3400462 L0.659953822,12.3400462 L0.659953822,8.40995382 Z" id="Shape"></path>
                            <path d="M5.84771987,7.15222705 C5.91286645,7.21740902 5.99701412,7.25 6.08387622,7.25 C6.17073833,7.25 6.25488599,7.21740902 6.32003257,7.15222705 L10.0822476,3.38525258 L10.0822476,5.55526888 C10.0822476,5.73995111 10.2315418,5.88932645 10.4161238,5.88932645 C10.6007058,5.88932645 10.75,5.73995111 10.75,5.55526888 L10.75,2.58405758 C10.75,2.39937534 10.6007058,2.25 10.4161238,2.25 L7.44381107,2.25 C7.2592291,2.25 7.10993485,2.39937534 7.10993485,2.58405758 C7.10993485,2.76873982 7.2592291,2.91811515 7.44381107,2.91811515 L9.61264929,2.91811515 L5.84771987,6.68237371 C5.71742671,6.81273764 5.71742671,7.02186312 5.84771987,7.15222705 Z" id="Shape"></path>
                        </g>
                    </g>
                </g>
            </g>
        </g>
    </g>
</svg>
