<?xml version="1.0" encoding="UTF-8"?>
<svg width="72px" height="66px" viewBox="0 0 72 66" version="1.1" xmlns="http://www.w3.org/2000/svg" xmlns:xlink="http://www.w3.org/1999/xlink">
    <!-- Generator: Sketch 48.2 (47327) - http://www.bohemiancoding.com/sketch -->
    <title>water-carrier</title>
    <desc>Created with Sketch.</desc>
    <defs></defs>
    <g id="SubPage---Compare" stroke="none" stroke-width="1" fill="none" fill-rule="evenodd" transform="translate(-1050.000000, -2002.000000)">
        <g id="Find-truck-bar" transform="translate(0.000000, 1929.000000)" fill="#FF5959" fill-rule="nonzero">
            <g id="Types" transform="translate(443.000000, 49.000000)">
                <g id="water-carrier" transform="translate(607.000000, 24.000000)">
                    <path d="M69.0263605,9.26808854 C66.985719,5.75630127 64.1923333,2.94662956 61.1609665,1.3565888 C58.0379984,-0.281680824 55.0238259,-0.441486194 52.6747525,0.90635191 L52.6741438,0.906200722 C52.6741438,0.906200722 18.2273061,20.6779198 18.1532033,20.7205548 C15.58593,22.1938786 14.1860417,25.3399429 14.3006195,29.2631118 L11.5232108,27.6695938 C11.3348345,27.5614946 11.1026356,27.5614946 10.9145637,27.6695938 L2.24879878,32.6415516 C2.10698401,32.7228906 2.00610076,32.8563893 1.96501708,33.0096936 C1.95162685,33.0597367 0,44.6228723 0,44.7479045 L0,54.4270905 C0,54.6431377 0.11609943,54.8428566 0.304323538,54.9508046 L17.8677479,65.0254976 C17.9622403,65.0796228 18.0672319,65.106383 18.1717671,65.106383 C18.2775195,65.106383 18.382359,65.0776573 18.4760906,65.0236833 L18.4766993,65.0247416 L24.1517246,61.769671 C24.2233928,62.942585 24.7125929,63.8462337 25.5389834,64.3200559 C25.9294305,64.544116 26.3659827,64.6556925 26.8293152,64.6556925 C27.3770976,64.6556925 27.9626161,64.499818 28.5545254,64.1894297 C29.5554455,63.664355 30.4735896,62.7437732 31.139906,61.5971659 C31.8063745,60.4505586 32.1498037,59.2000853 32.1067419,58.0761562 C32.0957862,57.790865 32.0597239,57.521751 32.0014459,57.2691164 L50.711257,46.6619404 C50.8072711,47.732198 51.272734,48.6163435 52.0941032,49.0874443 C52.4909411,49.3151329 52.9303843,49.4233833 53.3893042,49.4233833 C54.8841414,49.4233833 56.58531,48.2745082 57.6953301,46.3644031 C58.3217801,45.286435 58.6420806,44.1677974 58.6684046,43.1664814 C58.887061,43.8431975 59.2925721,44.3918575 59.8803731,44.729006 C60.2708202,44.9530662 60.7073723,45.0646427 61.1707049,45.0646427 C61.7186394,45.0646427 62.3040057,44.9087682 62.895915,44.5983799 C63.8968351,44.0733051 64.8149792,43.1525722 65.4812956,42.0059649 C66.147612,40.8592064 66.4910411,39.6088843 66.4481315,38.4849551 C66.4376323,38.2081305 66.4029394,37.946727 66.3478569,37.7005935 L67.390165,37.1027974 C67.5783891,36.9948494 67.6944885,36.7951305 67.6944885,36.5790833 L67.6944885,30.6783797 C67.6944885,30.4673217 67.5837148,30.2715336 67.4023379,30.1617714 C67.3929039,30.1560262 67.3828612,30.151793 67.3731229,30.1465014 L67.3737315,30.1454431 L65.3983674,29.0918162 C67.1057747,28.1118177 68.1384966,27.519162 68.1384966,27.519162 C70.4878743,26.1714751 71.8555043,23.4981747 71.9892545,19.991679 C72.1192006,16.5882933 71.067002,12.7798758 69.0263605,9.26808854 Z M18.7620026,21.7678318 C20.7358451,20.6357385 23.3314205,20.8032544 26.0712453,22.2401421 C28.9025193,23.7251074 31.5232015,26.3696822 33.4497216,29.685379 C33.4501781,29.686135 33.4513954,29.6881004 33.4527649,29.6905194 C33.4570254,29.6986835 33.4615903,29.7068477 33.4661551,29.7148606 C37.3759518,36.4641807 37.1705334,43.8979274 33.0084525,46.2857855 C31.9579277,46.8881172 30.7438289,47.1227605 29.3943062,46.9877499 C29.3943062,46.9877499 29.3911108,38.3059489 29.3911108,38.2699663 C29.3911108,38.0539191 29.2750114,37.8542002 29.0867872,37.7462522 L15.5591495,29.9851842 C15.2505654,26.1607408 16.4366664,23.1023654 18.7620026,21.7678318 Z M11.2188872,28.8916437 L27.5650174,38.2696639 L20.1165467,42.541774 L3.77041647,33.1652657 L11.2188872,28.8916437 Z M28.177012,39.3152778 L28.177012,48.3907715 L27.1830914,48.9609002 L27.1830914,39.8852554 L28.177012,39.3152778 Z M25.9657972,40.5835912 L25.9657972,49.6593872 L19.0648045,53.6180853 L20.6719371,43.6198933 L25.9657972,40.5835912 Z M3.03608377,34.1405774 L19.4494695,43.5556385 L19.0614569,45.9693497 L2.63863723,36.5491482 L3.03608377,34.1405774 Z M2.68245982,54.9181481 L1.21729415,54.0776958 L1.21729415,52.0177638 L2.68245982,52.858216 L2.68245982,54.9181481 Z M14.8051879,61.8720251 L3.89975397,55.6164839 L3.89975397,53.5565519 L14.8051879,59.812093 L14.8051879,61.8720251 Z M17.5637287,63.4543553 L16.0224821,62.5702098 L16.0224821,60.5101265 L17.5637287,61.394272 L17.5637287,63.4543553 Z M17.5637287,59.9977515 L1.21729415,50.621092 L1.21729415,45.7951815 L17.5637287,55.1719922 L17.5637287,59.9977515 Z M17.7861892,53.903074 L1.33263277,44.46473 L2.42819751,37.825021 L18.8558864,47.248095 L17.7861892,53.903074 Z M24.2664546,60.3070815 L18.7808706,63.4534482 L18.7808706,55.1772837 L28.1768599,49.787292 L28.1768599,55.324087 C27.0469066,55.7564837 25.9216703,56.7446464 25.1114089,58.1388991 C24.7039197,58.8404099 24.4178555,59.5807759 24.2664546,60.3070815 Z M30.0857293,60.9924152 C29.5324691,61.9442928 28.7868764,62.6997776 27.986049,63.1199281 C27.5756687,63.3353706 26.7908183,63.6419792 26.1474784,63.2727789 C25.5042906,62.9040321 25.3789093,62.0753725 25.3612585,61.6142501 C25.3268699,60.715137 25.6126297,59.6958297 26.1657378,58.743801 C27.2381739,56.898253 29.0420517,55.8543021 30.1041408,56.4634373 C30.7473286,56.8323352 30.8727099,57.6609948 30.8903607,58.1221172 C30.9245971,59.0210791 30.6388373,60.0403864 30.0857293,60.9924152 Z M56.6411533,45.7595012 C55.568565,47.6050491 53.7651437,48.6491512 52.7027503,48.0398649 C51.6403568,47.4304274 51.6487257,45.3562837 52.7211618,43.5107358 C53.274422,42.5588582 54.0198625,41.8032222 54.8208421,41.3832228 C55.0927552,41.2406529 55.5285465,41.0581693 55.9787931,41.0581693 C56.2085574,41.0581693 56.4421257,41.1056423 56.6594127,41.2303721 C57.7219584,41.8399608 57.7134373,43.9139533 56.6411533,45.7595012 Z M64.427271,41.401063 C63.8740108,42.3529406 63.1285703,43.1085766 62.3275908,43.5285759 C61.9170583,43.7440184 61.1322079,44.0504758 60.4890201,43.6814267 C59.4266267,43.0719891 59.4349956,40.9978455 60.5072795,39.1522975 C61.0605397,38.2004199 61.8061324,37.4449351 62.6069598,37.0247846 C63.0177966,36.8093422 63.8029513,36.5030359 64.4456826,36.8719339 C65.0887182,37.2406806 65.2142517,38.0693402 65.2317503,38.5304626 C65.2661389,39.4297269 64.9803791,40.4490342 64.427271,41.401063 Z M66.4774987,36.2296886 L65.8706776,36.5777227 C65.6541514,36.2664272 65.3807167,36.0118272 65.0543297,35.8246569 C64.2022238,35.3358671 63.1311571,35.3821305 62.0387878,35.955283 C61.0377155,36.4803578 60.1195714,37.4009395 59.453255,38.5475468 C59.028115,39.279144 58.7447898,40.0293372 58.5976493,40.7489906 L58.1362949,41.013569 C57.9145952,40.6714313 57.6253356,40.3878032 57.268212,40.1829439 C56.4159539,39.694003 55.3450394,39.7405688 54.25267,40.3135701 C53.2517499,40.8386448 52.3336058,41.7593778 51.6672894,42.9059851 C51.2188687,43.6777982 50.9273267,44.4703239 50.7880987,45.2258087 L31.5172672,56.1510835 C31.3027191,55.8478011 31.0329363,55.5995509 30.7127879,55.4158579 C30.3092549,55.1842384 29.8614428,55.0774999 29.3943062,55.0811284 L29.3943062,52.8635076 L66.4774987,31.713864 L66.4774987,36.2296886 Z M65.8242682,30.6918354 L29.3943062,51.4689525 L29.3943062,48.2022405 C29.6313742,48.2221972 29.8660077,48.2321756 30.0980544,48.2321756 C31.3809302,48.2321756 32.5784434,47.9285908 33.6169474,47.3330625 C33.6222731,47.3300388 55.0811909,35.013535 64.1588577,29.8033054 L65.8242682,30.6918354 Z M67.5298495,26.471885 L36.3846178,44.3537582 C37.0276535,43.0865032 37.3990804,41.5552744 37.4669445,39.8187328 C37.5994774,36.4274421 36.556865,32.631422 34.5305267,29.1276477 C32.464322,25.5700506 29.6709363,22.7603788 26.6395695,21.1704893 C25.0936059,20.3596698 23.574575,19.9117007 22.1494279,19.8288499 L53.2832474,1.95332655 C55.2573942,0.821384438 57.8531218,0.989202755 60.5927945,2.4260904 C63.4240685,3.91105572 66.0449028,6.5556305 67.9723359,9.87268804 C71.8997833,16.6325913 71.7016687,24.0787354 67.5298495,26.471885 Z" id="Shape"></path>
                </g>
            </g>
        </g>
    </g>
</svg>