<?xml version="1.0" encoding="UTF-8"?>
<svg width="72px" height="57px" viewBox="0 0 72 57" version="1.1" xmlns="http://www.w3.org/2000/svg" xmlns:xlink="http://www.w3.org/1999/xlink">
    <!-- Generator: Sketch 48.2 (47327) - http://www.bohemiancoding.com/sketch -->
    <title>tipper</title>
    <desc>Created with Sketch.</desc>
    <defs></defs>
    <g id="SubPage---Compare" stroke="none" stroke-width="1" fill="none" fill-rule="evenodd" transform="translate(-755.000000, -2004.000000)">
        <g id="Find-truck-bar" transform="translate(0.000000, 1929.000000)" fill="#FF5959" fill-rule="nonzero">
            <g id="Types" transform="translate(443.000000, 49.000000)">
                <g id="tipper" transform="translate(312.000000, 26.000000)">
                    <path d="M71.9985845,11.6112164 C71.9985845,11.3900133 71.8814129,11.1830059 71.6854453,11.0708444 L52.498709,0.0835390724 C52.342218,-0.00584695301 52.1549007,-0.0245665395 51.9836257,0.0325281993 L12.0219664,13.3652417 C11.7876231,13.443396 11.6212237,13.6507154 11.5965312,13.894694 C11.5944866,13.9154415 11.5948011,13.9360331 11.5948011,13.9566246 L11.5933856,13.9566246 L11.5933856,16.2650616 L2.43858538,21.5085738 C2.27438782,21.6026397 2.16429367,21.7644081 2.13362459,21.9464561 L2.13268092,21.9463001 L0.00865025448,34.5759371 L0.00959391861,34.5760931 C0.00393193386,34.6097884 0,34.6437956 0,34.6785829 L0,45.2328417 C0,45.4557608 0.119845344,45.6618322 0.314554708,45.7732138 L19.4994037,56.7586471 C19.5975447,56.8148059 19.7059088,56.8421053 19.8134865,56.8421053 C19.9232661,56.8421053 20.0311584,56.8112179 20.1275694,56.7559952 L20.1285131,56.7577111 L26.3716377,53.1830501 C26.4354923,54.4235347 26.9433408,55.4540479 27.8783547,55.9895841 C28.3067782,56.2348107 28.7808122,56.3513401 29.2762358,56.3513401 C30.8960353,56.3513401 32.7421569,55.1044596 33.9478451,53.0331374 C34.9072369,51.3850338 35.2068503,49.6506641 34.8819153,48.3094058 L50.8177287,39.1846993 C50.9116232,40.3621613 51.4160117,41.3354238 52.3154809,41.8505244 C52.7363551,42.0915391 53.2070862,42.2116565 53.7073855,42.2116565 C54.3000066,42.2116565 54.9339916,42.0430242 55.5750541,41.7074756 C56.662627,41.1380882 57.6605518,40.1389302 58.3849713,38.8943897 C59.0949213,37.6746527 59.4667249,36.347746 59.4374713,35.1481325 C59.6480657,35.9998737 60.1110902,36.6917184 60.8205684,37.0980894 C61.2414426,37.3391041 61.7121737,37.4592214 62.212473,37.4592214 C62.805094,37.4592214 63.4390791,37.2905892 64.0801415,36.9548846 C65.1677145,36.3854972 66.1656393,35.3864952 66.890216,34.1417987 C67.6146355,32.8971022 67.988012,31.5404002 67.9414579,30.3215991 C67.9296621,30.0124139 67.8905,29.7207004 67.8272745,29.4472384 L68.9884532,28.7823811 C69.1831626,28.6709996 69.3030079,28.4649281 69.3030079,28.242009 L69.3030079,22.1679712 L71.6854453,20.8037814 C71.8801547,20.6922438 72,20.4863284 72,20.2634093 L72,11.6113724 L71.9985845,11.6113724 L71.9985845,11.6112164 Z M21.0509448,34.5871689 L3.01878154,24.261757 L3.22434304,23.039368 L21.2484851,33.360256 L21.0509448,34.5871689 Z M20.8384631,35.9065877 L19.4195068,44.7180531 L1.32144433,34.354422 L2.79780685,25.5761839 L20.8384631,35.9065877 Z M19.1851635,46.0248362 L19.1851635,48.4920777 L1.25821883,38.2268805 L1.25821883,35.759327 L19.1851635,46.0248362 Z M1.25821883,39.6679766 L2.9981782,40.6641706 L2.9981782,42.5726325 L1.25821883,41.5764385 L1.25821883,39.6679766 Z M4.25639704,41.3847187 L16.1308373,48.1841405 L16.1308373,53.3886536 L4.25639704,46.5892318 L4.25639704,41.3847187 Z M17.3890561,48.9046886 L19.1853208,49.9331739 L19.1853208,51.8419477 L17.3890561,50.8137744 L17.3890561,48.9046886 Z M22.5118941,33.4263985 L30.7782346,28.6934631 L30.7782346,38.6713147 L20.7418948,44.4185397 L22.5118941,33.4263985 Z M12.8516044,15.0375247 L30.7782346,25.302566 L30.7782346,26.5360307 L12.8516044,16.2692735 L12.8516044,15.0375247 Z M31.4759169,24.260977 L29.4031587,23.0739992 L52.1841543,10.0272274 L60.2677385,14.6564252 L31.4759169,24.260977 Z M61.8578125,14.1261929 L52.8132637,8.94663928 L52.8132637,1.70481126 L69.8492322,11.4603678 L61.8578125,14.1261929 Z M51.5550449,1.49218796 L51.5550449,8.94663928 L28.1449398,22.3536071 L13.7439962,14.1074733 L51.5550449,1.49218796 Z M12.2188777,17.3479897 L30.1455078,27.6145909 L21.937989,32.3139871 L4.01135892,22.0489459 L12.2188777,17.3479897 Z M1.25821883,43.0175347 L2.9981782,44.0137286 L2.9981782,45.8688397 L1.25821883,44.8724897 L1.25821883,43.0175347 Z M17.3890561,54.1092016 L17.3890561,52.2545586 L19.1853208,53.2827319 L19.1853208,55.1376869 L17.3890561,54.1092016 Z M26.4979314,51.6700395 L20.4433823,55.1365949 L20.4433823,46.0304521 L30.7782346,40.1124108 L30.7782346,46.2346516 C29.5440792,46.6982733 28.3116538,47.7752736 27.4250814,49.2981119 C26.9663033,50.0865185 26.6591407,50.8944246 26.4979314,51.6700395 Z M32.8583848,52.4094632 C31.6772319,54.4385104 29.6846851,55.5829011 28.5076214,54.908996 C27.3304004,54.2347789 27.3337032,51.9511453 28.5146989,49.9220981 C29.4654405,48.2888142 30.9416457,47.2286616 32.0954324,47.2286616 C32.3750715,47.2286616 32.6358374,47.2909043 32.8654623,47.4224093 C34.0426833,48.0966265 34.0395378,50.380416 32.8583848,52.4094632 Z M33.4945717,46.3416652 C33.049005,46.0866109 32.5535813,45.9717974 32.0364534,45.9816252 L32.0364534,43.5070518 L35.9114528,41.2881569 L35.9114528,46.2792666 L34.3779986,47.1573712 C34.1461718,46.8240066 33.8519059,46.5463327 33.4945717,46.3416652 Z M46.6918718,35.1152172 L46.6918718,40.106483 L37.1696717,45.5588745 L37.1696717,40.5677648 L46.6918718,35.1152172 Z M57.2953538,38.2705595 C56.6879486,39.3141765 55.8683763,40.1429862 54.9877804,40.603956 C54.2018655,41.0154749 53.4765023,41.0742856 52.9447476,40.7699363 C51.7675266,40.0957192 51.7708294,37.8120856 52.9518251,35.7830385 C53.5593875,34.7394215 54.3789598,33.9106118 55.2595557,33.449642 C56.0454706,33.0381231 56.7709911,32.9791564 57.3025885,33.2836617 C57.834186,33.588011 58.1454379,34.2407005 58.1790952,35.1214571 C58.2166845,36.1086033 57.9029162,37.2269426 57.2953538,38.2705595 Z M65.8005985,33.5181245 C65.1930361,34.5617414 64.3734638,35.3905511 63.4928679,35.8515209 C62.706953,36.2630399 61.9814325,36.3218506 61.4498351,36.0175013 C60.2726141,35.3432842 60.2759169,33.0596506 61.4569126,31.0306034 C62.0643177,29.9869865 62.88389,29.1581768 63.7644859,28.697207 C64.2190175,28.4591562 64.6534175,28.3391949 65.0418926,28.3391949 C65.3248345,28.3391949 65.5833985,28.4029975 65.8075187,28.5312267 C66.3391162,28.8355759 66.6503681,29.4882655 66.6840254,30.3690221 C66.721772,31.3560123 66.4080037,32.4743516 65.8005985,33.5181245 Z M68.0447891,27.881813 L67.3348391,28.28834 C67.0984513,27.9409357 66.797737,27.657178 66.4366281,27.4504825 C65.5168702,26.9236822 64.3593089,26.974693 63.177055,27.5935314 C62.0894821,28.1629188 61.0915573,29.1619207 60.3671378,30.4066172 C59.9015968,31.2064116 59.5923895,32.0263294 59.4332248,32.8120841 L58.8855851,33.1256372 C58.6416479,32.7392337 58.3217458,32.4263046 57.9315407,32.2029175 C57.01194,31.6762732 55.8542214,31.7271281 54.6719675,32.3459664 C53.5843946,32.9153538 52.5864698,33.9143557 51.8620503,35.1590522 C51.3705586,36.0033056 51.0520719,36.8704904 50.901872,37.6957122 L47.9502479,39.3857789 L47.9502479,34.3945131 L68.0447891,22.8882073 L68.0447891,27.881813 Z M32.0364534,42.0659557 L32.0364534,25.390704 L70.7417812,12.4794932 L70.7417812,19.9030573 L32.0364534,42.0659557 Z" id="Shape"></path>
                </g>
            </g>
        </g>
    </g>
</svg>